<?xml version="1.0" encoding="UTF-8"?>
<svg id="Ebene_1" data-name="Ebene 1" xmlns="http://www.w3.org/2000/svg" xmlns:xlink="http://www.w3.org/1999/xlink" viewBox="0 0 195.76 50.55">
  <defs>
    <style>
      .cls-1 {
        fill: #0083c8;
      }

      .cls-2 {
        fill: #004992;
      }

      .cls-3 {
        fill: #75ccf4;
      }

      .cls-4, .cls-5 {
        fill: none;
      }

      .cls-5 {
        clip-path: url(#clippath);
      }

      .cls-6 {
        fill: #5bc5f2;
      }
    </style>
    <clipPath id="clippath">
      <path class="cls-4" d="m4.4,0C.47,0-1.12,2.76.84,6.17l17.8,30.82c1.97,3.41,5.16,3.41,7.12,0L43.57,6.17C45.54,2.76,43.94,0,40.01,0H4.4Z"/>
    </clipPath>
  </defs>
  <g>
    <path class="cls-2" d="m68.58,33.47v-.67l3.59-5.58c.25-.37.47-.7.72-1.05-.43.01-1.04.02-1.89.02h-2.28v-.82h5.22v.68l-3.78,5.83c-.17.28-.34.5-.52.78.26-.04,1.06-.04,2.12-.04h2.21v.84h-5.38Z"/>
    <path class="cls-2" d="m79.74,30.35h-3.98c-.06,1.75.64,2.47,1.98,2.47.58,0,1.18-.12,1.69-.35l.16.73c-.59.23-1.28.37-2.03.37-1.77,0-2.73-.97-2.73-3.06,0-1.78.97-3.12,2.63-3.12s2.31,1.12,2.31,2.41c0,.12,0,.32-.02.54Zm-2.35-2.25c-.84,0-1.44.62-1.58,1.59h3.02c.02-.96-.53-1.59-1.44-1.59Z"/>
    <path class="cls-2" d="m85.4,33.47v-3.85c0-.94-.25-1.48-1.12-1.48-1.07,0-1.82,1.06-1.82,2.47v2.85h-.9v-5.96h.89c0,.4-.04.97-.1,1.33h.02c.34-.86,1.09-1.44,2.14-1.44,1.37,0,1.79.85,1.79,1.92v4.15h-.9Z"/>
    <path class="cls-2" d="m90.24,33.56c-1.2,0-1.55-.53-1.55-1.76v-3.59h-1.29v-.71h1.29v-1.98l.9-.25v2.23h1.75v.71h-1.75v3.21c0,1.07.19,1.34.9,1.34.3,0,.58-.04.8-.1l.11.76c-.34.07-.79.13-1.16.13Z"/>
    <path class="cls-2" d="m95.87,28.3c-1.32-.23-1.94.78-1.94,2.78v2.39h-.9v-5.96h.89c0,.4-.05.98-.14,1.5h.02c.24-.86.86-1.74,2.11-1.59l-.04.89Z"/>
    <path class="cls-2" d="m101.24,33.47c0-.4.04-.97.1-1.33h-.02c-.34.86-1.09,1.44-2.13,1.44-1.37,0-1.79-.85-1.79-1.92v-4.15h.9v3.85c0,.93.25,1.47,1.12,1.47,1.07,0,1.82-1.06,1.82-2.47v-2.85h.9v5.96h-.89Z"/>
    <path class="cls-2" d="m111.96,33.47v-3.84c0-.9-.22-1.49-1.08-1.49-.91,0-1.79.95-1.79,2.5v2.83h-.89v-3.85c0-.82-.17-1.48-1.08-1.48-.98,0-1.79,1.03-1.79,2.5v2.83h-.9v-5.96h.89c0,.4-.02.96-.1,1.33h.02c.34-.86,1.12-1.44,2.1-1.44,1.36,0,1.64.97,1.67,1.43.22-.56.86-1.43,2.08-1.43,1.12,0,1.76.6,1.76,1.94v4.13h-.9Z"/>
    <path class="cls-2" d="m121.34,25.52c-.3-.1-.62-.13-.94-.13-.91,0-1.32.53-1.32,1.68v.44h1.76v.71h-1.76v5.25h-.9v-5.25h-1.3v-.71h1.3v-.42c0-1.67.83-2.43,2.25-2.43.34,0,.66.04.98.11l-.08.76Z"/>
    <path class="cls-2" d="m126.05,33.47c0-.4.04-.97.1-1.33h-.02c-.34.86-1.09,1.44-2.13,1.44-1.37,0-1.79-.85-1.79-1.92v-4.15h.9v3.85c0,.93.25,1.47,1.12,1.47,1.07,0,1.82-1.06,1.82-2.47v-2.85h.9v5.96h-.89Zm-2.61-7.3c-.32,0-.58-.25-.58-.58s.25-.56.58-.56.58.25.58.56-.25.58-.58.58Zm2.25,0c-.32,0-.58-.25-.58-.58s.25-.56.58-.56.56.25.56.56-.25.58-.56.58Z"/>
    <path class="cls-2" d="m132.08,28.3c-1.32-.23-1.94.78-1.94,2.78v2.39h-.9v-5.96h.89c0,.4-.05.98-.14,1.5h.02c.24-.86.86-1.74,2.11-1.59l-.04.89Z"/>
    <path class="cls-2" d="m144.33,33.47l-.72-5c-.13-.92-.22-1.61-.26-2.05h-.02c-.07.34-.2.82-.4,1.38l-1.91,5.67h-1.02l-1.81-5.31c-.22-.63-.38-1.22-.52-1.74h-.01c-.05.64-.12,1.32-.22,2.13l-.59,4.92h-.95l1.15-8.1h1.16l1.86,5.48c.13.4.32,1.02.46,1.57h.01c.16-.55.29-1.01.44-1.49l1.89-5.57h1.2l1.2,8.1h-.96Z"/>
    <path class="cls-2" d="m149.19,33.58c-1.59,0-2.63-.97-2.63-3.06,0-1.7,1.05-3.12,2.84-3.12,1.45,0,2.64.8,2.64,2.99,0,1.77-1.09,3.19-2.85,3.19Zm.13-5.43c-.94,0-1.82.71-1.82,2.3s.65,2.36,1.82,2.36c.94,0,1.79-.72,1.79-2.36,0-1.44-.6-2.3-1.79-2.3Z"/>
    <path class="cls-2" d="m153.78,33.47v-8.75h.9v8.75h-.9Z"/>
    <path class="cls-2" d="m161.34,30.35h-3.98c-.06,1.75.63,2.47,1.98,2.47.58,0,1.18-.12,1.69-.35l.16.73c-.59.23-1.28.37-2.03.37-1.78,0-2.73-.97-2.73-3.06,0-1.78.97-3.12,2.63-3.12s2.31,1.12,2.31,2.41c0,.12,0,.32-.02.54Zm-2.35-2.25c-.84,0-1.44.62-1.58,1.59h3.02c.02-.96-.53-1.59-1.44-1.59Z"/>
    <path class="cls-2" d="m166.41,33.47l-2.35-3.13v3.13h-.9v-8.75h.9v5.47l2.24-2.67h1.09l-2.38,2.71,2.55,3.25h-1.16Z"/>
    <path class="cls-2" d="m172.75,33.47c0-.4.04-.97.1-1.33h-.02c-.34.86-1.09,1.44-2.13,1.44-1.37,0-1.79-.85-1.79-1.92v-4.15h.9v3.85c0,.93.25,1.47,1.12,1.47,1.07,0,1.82-1.06,1.82-2.47v-2.85h.9v5.96h-.89Z"/>
    <path class="cls-2" d="m175.94,33.47v-8.75h.9v8.75h-.9Z"/>
    <path class="cls-2" d="m182.32,33.47c0-.46,0-.91.06-1.26h-.02c-.29.76-1.06,1.37-2.07,1.37-.95,0-1.63-.61-1.63-1.58,0-1.22,1.28-2.04,3.63-2.04v-.43c0-.9-.34-1.4-1.37-1.4-.58,0-1.27.19-1.75.46l-.2-.74c.58-.25,1.33-.43,2.1-.43,1.66,0,2.12.82,2.12,1.93v2.35c0,.59,0,1.26.02,1.79h-.89Zm-.04-2.85c-2.14,0-2.74.6-2.74,1.25,0,.56.38.98.97.98,1.06,0,1.76-1.04,1.76-2.07v-.16Z"/>
    <path class="cls-2" d="m188.35,28.3c-1.32-.23-1.94.78-1.94,2.78v2.39h-.9v-5.96h.89c0,.4-.05.98-.14,1.5h.02c.24-.86.86-1.74,2.11-1.59l-.04.89Z"/>
    <path class="cls-2" d="m194.06,30.35h-3.98c-.06,1.75.63,2.47,1.98,2.47.58,0,1.18-.12,1.69-.35l.16.73c-.59.23-1.28.37-2.03.37-1.78,0-2.73-.97-2.73-3.06,0-1.78.97-3.12,2.63-3.12s2.31,1.12,2.31,2.41c0,.12,0,.32-.02.54Zm-2.35-2.25c-.84,0-1.44.62-1.58,1.59h3.02c.02-.96-.53-1.59-1.44-1.59Z"/>
  </g>
  <g>
    <path class="cls-2" d="m74.23,47.47l-3.41-5.48c-.35-.58-.64-1.09-.89-1.61.04.92.08,3.35.08,4.81v2.28h-.9v-8.1h1.22l3.37,5.4c.32.53.65,1.1.93,1.64-.04-1.08-.08-3.45-.08-4.96v-2.08h.9v8.1h-1.24Z"/>
    <path class="cls-2" d="m82.13,44.35h-3.98c-.06,1.75.64,2.47,1.98,2.47.58,0,1.18-.12,1.69-.35l.16.73c-.59.23-1.28.37-2.03.37-1.77,0-2.73-.97-2.73-3.06,0-1.78.97-3.12,2.63-3.12s2.31,1.12,2.31,2.41c0,.12,0,.32-.02.54Zm-2.35-2.25c-.84,0-1.44.62-1.58,1.59h3.02c.02-.96-.53-1.59-1.44-1.59Z"/>
    <path class="cls-2" d="m87.8,47.47c0-.4.04-.97.1-1.33h-.02c-.34.86-1.09,1.44-2.13,1.44-1.37,0-1.79-.85-1.79-1.92v-4.15h.9v3.85c0,.94.25,1.48,1.12,1.48,1.07,0,1.82-1.06,1.82-2.47v-2.85h.9v5.96h-.89Z"/>
    <path class="cls-2" d="m93.84,42.3c-1.32-.23-1.94.78-1.94,2.78v2.39h-.9v-5.96h.89c0,.4-.05.98-.14,1.5h.02c.24-.86.86-1.74,2.11-1.59l-.04.89Z"/>
    <path class="cls-2" d="m97.26,47.58c-1.6,0-2.63-.97-2.63-3.06,0-1.7,1.06-3.12,2.84-3.12,1.45,0,2.64.8,2.64,2.99,0,1.77-1.09,3.19-2.85,3.19Zm.13-5.43c-.94,0-1.82.71-1.82,2.3s.65,2.36,1.82,2.36c.94,0,1.79-.72,1.79-2.36,0-1.44-.6-2.3-1.79-2.3Z"/>
    <path class="cls-2" d="m103.82,47.54c-.8,0-1.37-.06-1.98-.23v-8.6h.9v3.02c0,.33-.04.79-.11,1.09h.02c.34-.89,1.1-1.43,2.04-1.43,1.4,0,2.19.97,2.19,2.82,0,2.12-1.2,3.32-3.07,3.32Zm.7-5.4c-1.2,0-1.78,1.39-1.78,2.45v2.09c.35.11.71.16,1.16.16,1.24,0,2.04-.74,2.04-2.54,0-1.34-.44-2.15-1.43-2.15Z"/>
    <path class="cls-2" d="m109.12,40.21c-.35,0-.62-.26-.62-.61s.28-.61.62-.61.62.26.62.61-.29.61-.62.61Zm-.46,7.27v-5.96h.9v5.96h-.9Z"/>
    <path class="cls-2" d="m113.9,47.58c-1.59,0-2.63-.97-2.63-3.06,0-1.7,1.05-3.12,2.84-3.12,1.45,0,2.64.8,2.64,2.99,0,1.77-1.09,3.19-2.85,3.19Zm.13-5.43c-.94,0-1.82.71-1.82,2.3s.65,2.36,1.82,2.36c.94,0,1.79-.72,1.79-2.36,0-1.44-.6-2.3-1.79-2.3Z"/>
    <path class="cls-2" d="m118.49,47.47v-8.75h.9v8.75h-.9Z"/>
    <path class="cls-2" d="m123.73,47.58c-1.6,0-2.63-.97-2.63-3.06,0-1.7,1.06-3.12,2.84-3.12,1.45,0,2.64.8,2.64,2.99,0,1.77-1.09,3.19-2.85,3.19Zm.13-5.43c-.94,0-1.82.71-1.82,2.3s.65,2.36,1.82,2.36c.94,0,1.79-.72,1.79-2.36,0-1.44-.6-2.3-1.79-2.3Z"/>
    <path class="cls-2" d="m130.22,50.55c-1.51,0-2.5-.64-2.5-1.77,0-.73.48-1.32,1.04-1.64-.37-.14-.6-.48-.6-.88s.25-.78.65-.98c-.55-.32-.88-.86-.88-1.66,0-1.18.89-2.22,2.48-2.22.31,0,.5.04.8.11h2.03v.71h-1.07c.35.28.55.72.55,1.24,0,1.21-.82,2.17-2.5,2.17-.26,0-.48-.02-.71-.1-.28.13-.43.35-.43.55,0,.36.34.48,1.07.5l1.15.05c1.3.05,2,.66,2,1.7,0,1.26-1.28,2.22-3.11,2.22Zm.85-3.15l-1.2-.05h-.38c-.52.34-.85.77-.85,1.27,0,.77.74,1.21,1.74,1.21,1.31,0,2.03-.59,2.03-1.38,0-.64-.42-1.02-1.33-1.06Zm-.7-5.3c-.97,0-1.54.62-1.54,1.45,0,.9.54,1.4,1.5,1.4s1.5-.52,1.5-1.42-.53-1.44-1.46-1.44Z"/>
    <path class="cls-2" d="m135.36,40.21c-.35,0-.62-.26-.62-.61s.28-.61.62-.61.62.26.62.61-.29.61-.62.61Zm-.46,7.27v-5.96h.9v5.96h-.9Z"/>
    <path class="cls-2" d="m142.46,44.35h-3.98c-.06,1.75.64,2.47,1.98,2.47.58,0,1.18-.12,1.69-.35l.16.73c-.59.23-1.28.37-2.03.37-1.77,0-2.73-.97-2.73-3.06,0-1.78.97-3.12,2.63-3.12s2.31,1.12,2.31,2.41c0,.12,0,.32-.02.54Zm-2.35-2.25c-.84,0-1.44.62-1.58,1.59h3.02c.02-.96-.53-1.59-1.44-1.59Z"/>
    <path class="cls-2" d="m152.35,47.47v-3.81h-4.4v3.81h-.92v-8.1h.92v3.51h4.4v-3.51h.91v8.1h-.91Z"/>
    <path class="cls-2" d="m158.74,47.47c0-.46,0-.91.06-1.26h-.02c-.29.76-1.06,1.37-2.07,1.37-.95,0-1.63-.61-1.63-1.58,0-1.22,1.28-2.04,3.63-2.04v-.43c0-.9-.34-1.4-1.37-1.4-.58,0-1.27.19-1.75.46l-.2-.74c.58-.25,1.33-.43,2.1-.43,1.66,0,2.12.82,2.12,1.93v2.35c0,.59,0,1.26.02,1.79h-.89Zm-.04-2.85c-2.14,0-2.74.6-2.74,1.25,0,.56.38.98.97.98,1.06,0,1.76-1.04,1.76-2.07v-.16Z"/>
    <path class="cls-2" d="m169.45,47.47v-3.84c0-.9-.22-1.49-1.08-1.49-.91,0-1.79.95-1.79,2.5v2.83h-.89v-3.85c0-.82-.17-1.48-1.08-1.48-.98,0-1.79,1.03-1.79,2.5v2.83h-.9v-5.96h.89c0,.4-.02.96-.1,1.33h.02c.34-.86,1.12-1.44,2.1-1.44,1.35,0,1.64.97,1.67,1.43.22-.56.86-1.43,2.07-1.43,1.12,0,1.76.6,1.76,1.94v4.13h-.9Z"/>
    <path class="cls-2" d="m174.63,47.54c-.8,0-1.37-.06-1.98-.23v-8.6h.9v3.02c0,.33-.04.79-.11,1.09h.02c.34-.89,1.1-1.43,2.04-1.43,1.4,0,2.19.97,2.19,2.82,0,2.12-1.2,3.32-3.07,3.32Zm.7-5.4c-1.2,0-1.78,1.39-1.78,2.45v2.09c.35.11.71.16,1.16.16,1.24,0,2.04-.74,2.04-2.54,0-1.34-.44-2.15-1.43-2.15Z"/>
    <path class="cls-2" d="m183.32,47.47c0-.4.04-.97.1-1.33h-.02c-.34.86-1.09,1.44-2.13,1.44-1.37,0-1.79-.85-1.79-1.92v-4.15h.9v3.85c0,.94.25,1.48,1.12,1.48,1.07,0,1.82-1.06,1.82-2.47v-2.85h.9v5.96h-.89Z"/>
    <path class="cls-2" d="m189.36,42.3c-1.32-.23-1.94.78-1.94,2.78v2.39h-.9v-5.96h.89c0,.4-.05.98-.14,1.5h.02c.24-.86.86-1.74,2.11-1.59l-.04.89Z"/>
    <path class="cls-2" d="m192.66,50.55c-1.51,0-2.5-.64-2.5-1.77,0-.73.48-1.32,1.04-1.64-.37-.14-.6-.48-.6-.88s.25-.78.65-.98c-.55-.32-.88-.86-.88-1.66,0-1.18.89-2.22,2.48-2.22.31,0,.5.04.8.11h2.03v.71h-1.07c.35.28.55.72.55,1.24,0,1.21-.82,2.17-2.5,2.17-.26,0-.48-.02-.71-.1-.28.13-.43.35-.43.55,0,.36.34.48,1.07.5l1.15.05c1.3.05,2,.66,2,1.7,0,1.26-1.28,2.22-3.11,2.22Zm.85-3.15l-1.2-.05h-.38c-.52.34-.85.77-.85,1.27,0,.77.74,1.21,1.74,1.21,1.31,0,2.03-.59,2.03-1.38,0-.64-.42-1.02-1.33-1.06Zm-.7-5.3c-.97,0-1.54.62-1.54,1.45,0,.9.54,1.4,1.5,1.4s1.5-.52,1.5-1.42-.53-1.44-1.46-1.44Z"/>
  </g>
  <path class="cls-3" d="m17.07,47.86c-3.93,0-5.53-2.76-3.56-6.17L31.31,10.87c1.97-3.41,5.16-3.41,7.12,0l17.8,30.82c1.97,3.41.37,6.17-3.56,6.17H17.07Z"/>
  <path class="cls-2" d="m4.4,0C.47,0-1.12,2.76.84,6.17l17.8,30.82c1.97,3.41,5.16,3.41,7.12,0L43.57,6.17c1.97-3.41.37-6.17-3.56-6.17H4.4Z"/>
  <g class="cls-5">
    <path class="cls-1" d="m17.07,47.86c-3.93,0-5.53-2.76-3.56-6.17L31.31,10.87c1.97-3.41,5.16-3.41,7.12,0l17.8,30.82c1.97,3.41.37,6.17-3.56,6.17H17.07Z"/>
  </g>
  <path class="cls-6" d="m21.92,20.7c.94,0,1.71-.76,1.71-1.71s-.77-1.71-1.71-1.71-1.71.76-1.71,1.71.77,1.71,1.71,1.71"/>
  <path class="cls-6" d="m32.03,20.08c1.26,0,2.28-1.02,2.28-2.28s-1.02-2.28-2.28-2.28-2.28,1.02-2.28,2.28,1.02,2.28,2.28,2.28"/>
  <path class="cls-6" d="m16.91,13.69c.71,0,1.28-.57,1.28-1.28s-.57-1.28-1.28-1.28-1.28.57-1.28,1.28.57,1.28,1.28,1.28"/>
  <path class="cls-6" d="m21.35,30.05c.94,0,1.71-.76,1.71-1.71s-.77-1.71-1.71-1.71-1.71.76-1.71,1.71.77,1.71,1.71,1.71"/>
  <g>
    <path class="cls-2" d="m28.05,29.34c.94,0,1.71-.76,1.71-1.71s-.77-1.71-1.71-1.71-1.71.76-1.71,1.71.77,1.71,1.71,1.71"/>
    <path class="cls-2" d="m43.76,32.89c.71,0,1.28-.57,1.28-1.28s-.57-1.28-1.28-1.28-1.28.57-1.28,1.28.57,1.28,1.28,1.28"/>
    <path class="cls-2" d="m35,27.92c.94,0,1.71-.76,1.71-1.71s-.77-1.71-1.71-1.71-1.71.76-1.71,1.71.77,1.71,1.71,1.71"/>
    <path class="cls-2" d="m35,35.89c1.26,0,2.28-1.02,2.28-2.28s-1.02-2.28-2.28-2.28-2.28,1.02-2.28,2.28,1.02,2.28,2.28,2.28"/>
    <path class="cls-2" d="m26.34,37.03c.71,0,1.28-.57,1.28-1.28s-.57-1.28-1.28-1.28-1.28.57-1.28,1.28.57,1.28,1.28,1.28"/>
  </g>
  <path class="cls-6" d="m24.71,12.83c1.26,0,2.28-1.02,2.28-2.28s-1.02-2.28-2.28-2.28-2.28,1.02-2.28,2.28,1.02,2.28,2.28,2.28"/>
  <g>
    <path class="cls-2" d="m69.3,17.05v-1.34l7.18-11.16c.5-.74.94-1.39,1.44-2.11-.86.02-2.09.05-3.79.05h-4.56V.85h10.44v1.37l-7.56,11.67c-.34.55-.67,1.01-1.03,1.56.53-.07,2.11-.07,4.25-.07h4.42v1.68h-10.78Z"/>
    <path class="cls-2" d="m99.3,17.05l-1.44-10.01c-.26-1.85-.43-3.22-.53-4.1h-.05c-.14.67-.41,1.63-.79,2.76l-3.82,11.35h-2.04l-3.62-10.63c-.43-1.27-.77-2.45-1.03-3.48h-.02c-.1,1.27-.24,2.64-.43,4.27l-1.18,9.84h-1.9l2.3-16.2h2.33l3.72,10.97c.26.79.65,2.04.91,3.14h.02c.31-1.1.58-2.02.89-2.98l3.79-11.14h2.4l2.4,16.2h-1.92Z"/>
    <path class="cls-2" d="m115.77,17.05l-6.82-10.97c-.7-1.15-1.27-2.18-1.78-3.22.07,1.85.17,6.7.17,9.62v4.56h-1.8V.85h2.45l6.74,10.8c.65,1.06,1.3,2.21,1.87,3.29-.07-2.16-.17-6.91-.17-9.94V.85h1.8v16.2h-2.47Z"/>
    <path class="cls-2" d="m134.44,17.05v-7.63h-8.81v7.63h-1.85V.85h1.85v7.03h8.81V.85h1.82v16.2h-1.82Z"/>
  </g>
</svg>